<svg width="35" height="35" viewBox="0 0 35 35" fill="none" xmlns="http://www.w3.org/2000/svg">
<g clip-path="url(#clip0_21_1338)">
<path d="M34.3164 0.683371C33.8787 0.245879 33.2852 0.000116098 32.6663 0.000116098C32.0474 0.000116098 31.4539 0.245879 31.0162 0.683371L17.4987 14.2008L3.98125 0.683371C3.54362 0.245738 2.95006 -0.000122077 2.33115 -0.00012207C1.71224 -0.000122064 1.11869 0.245738 0.681052 0.683371C0.243419 1.121 -0.0024414 1.71456 -0.00244141 2.33347C-0.00244141 2.95238 0.243418 3.54593 0.681052 3.98357L14.1985 17.501L0.681052 31.0185C0.243418 31.4561 -0.00244141 32.0497 -0.00244141 32.6686C-0.0024414 33.2875 0.243419 33.8811 0.681052 34.3187C1.11869 34.7563 1.71224 35.0022 2.33115 35.0022C2.95006 35.0022 3.54362 34.7563 3.98125 34.3187L17.4987 20.8012L31.0162 34.3187C31.4538 34.7563 32.0474 35.0022 32.6663 35.0022C33.2852 35.0022 33.8788 34.7563 34.3164 34.3187C34.754 33.8811 34.9999 33.2875 34.9999 32.6686C34.9999 32.0497 34.754 31.4561 34.3164 31.0185L20.7989 17.501L34.3164 3.98357C34.7539 3.54586 34.9996 2.95233 34.9996 2.33347C34.9996 1.71461 34.7539 1.12108 34.3164 0.683371Z" fill="#DB4687"/>
</g>
<defs>
<clipPath id="clip0_21_1338">
<rect width="35" height="35" fill="white"/>
</clipPath>
</defs>
</svg>
