<svg width="21" height="15" viewBox="0 0 21 15" fill="none" xmlns="http://www.w3.org/2000/svg">
<g clip-path="url(#clip0_10_326)">
<path d="M19.006 15.0001H1.98866C1.72552 14.9994 1.46511 14.9478 1.22244 14.8483C0.979781 14.7488 0.759665 14.6033 0.574788 14.4202C0.389911 14.2371 0.24393 14.02 0.14526 13.7815C0.0465908 13.543 -0.00281484 13.2877 -0.000108134 13.0305V1.9446C0.00124499 1.42928 0.21121 0.935446 0.583884 0.571061C0.956559 0.206676 1.46162 0.00138106 1.98866 5.80301e-05H19.006C19.2687 -0.00192378 19.5292 0.0468739 19.7726 0.143647C20.0159 0.24042 20.2373 0.38326 20.424 0.563958C20.6107 0.744657 20.7591 0.959652 20.8606 1.19659C20.962 1.43352 21.0146 1.68773 21.0153 1.9446V13.0305C21.0139 13.5458 20.8039 14.0396 20.4313 14.404C20.0586 14.7684 19.5535 14.9737 19.0265 14.975M1.98866 1.9045C1.97779 1.9045 1.96736 1.90873 1.95967 1.91625C1.95198 1.92376 1.94766 1.93396 1.94766 1.9446V13.0305C1.94766 13.0411 1.95198 13.0513 1.95967 13.0588C1.96736 13.0663 1.97779 13.0706 1.98866 13.0706H19.006C19.0169 13.0706 19.0273 13.0663 19.035 13.0588C19.0427 13.0513 19.047 13.0411 19.047 13.0305V1.9446C19.047 1.93396 19.0427 1.92376 19.035 1.91625C19.0273 1.90873 19.0169 1.9045 19.006 1.9045H1.98866Z" fill="#DB4687"/>
<path d="M10.4872 8.78532C10.0744 8.78534 9.67033 8.66873 9.32367 8.44954L0.681732 2.50567L1.80426 0.937012L10.4154 6.87086C10.4463 6.88666 10.4806 6.89492 10.5154 6.89492C10.5502 6.89492 10.5845 6.88666 10.6153 6.87086L19.1958 0.937012L20.3183 2.50567L11.7071 8.42949C11.3458 8.66031 10.9239 8.78389 10.4923 8.78532" fill="#DB4687"/>
</g>
<defs>
<clipPath id="clip0_10_326">
<rect width="21" height="15" fill="white"/>
</clipPath>
</defs>
</svg>
