<svg width="22" height="22" viewBox="0 0 22 22" fill="none" xmlns="http://www.w3.org/2000/svg">
<g clip-path="url(#clip0_10_320)">
<path d="M11.0027 1.98165C13.9406 1.98165 14.2859 1.98165 15.4494 2.0454C16.146 2.05339 16.8361 2.18098 17.4895 2.4226C17.9671 2.59941 18.3991 2.88077 18.7539 3.24608C19.1192 3.6009 19.4006 4.03292 19.5774 4.5105C19.8192 5.16571 19.9468 5.85755 19.9546 6.5559C20.0077 7.71408 20.0184 8.06472 20.0184 11.0027C20.0184 13.9406 20.0184 14.2859 19.9546 15.4494C19.9468 16.1478 19.8192 16.8396 19.5774 17.4948C19.3943 17.9692 19.1139 18.4001 18.7544 18.7597C18.3948 19.1193 17.9639 19.3996 17.4895 19.5827C16.8359 19.8238 16.146 19.9514 15.4494 19.9599C14.2912 20.013 13.9406 20.0237 11.0027 20.0237C8.06472 20.0237 7.71939 20.0237 6.5559 19.9599C5.85756 19.952 5.16573 19.8244 4.5105 19.5827C4.0325 19.4042 3.60048 19.121 3.24608 18.7539C2.88077 18.3991 2.59941 17.9671 2.4226 17.4895C2.18079 16.8343 2.0532 16.1425 2.0454 15.4441C1.99227 14.2859 1.98165 13.9353 1.98165 10.9973C1.98165 8.05941 1.98165 7.71408 2.0454 6.55059C2.0532 5.85223 2.18079 5.16039 2.4226 4.50519C2.60011 4.02951 2.88143 3.59937 3.24608 3.24608C3.60102 2.88091 4.033 2.59957 4.5105 2.4226C5.16559 2.18038 5.85751 2.05278 6.5559 2.0454C7.71408 1.99227 8.06472 1.98165 11.0027 1.98165ZM11.0027 0C8.0169 0 7.6397 0 6.46559 0.0690654C5.55656 0.0955181 4.6585 0.275129 3.80922 0.600338C3.07262 0.868746 2.40356 1.29484 1.84883 1.84883C1.28925 2.39696 0.855934 3.06053 0.579087 3.79329C0.253976 4.64259 0.0743683 5.54063 0.0478145 6.44965C0 7.6397 0 8.01159 0 11.0027C0 13.9937 0 14.3444 0.0690654 15.5344C0.0957202 16.4434 0.275324 17.3414 0.600338 18.1908C0.883633 18.9212 1.31633 19.5843 1.87073 20.1378C2.42513 20.6913 3.08901 21.1229 3.81985 21.405C4.66896 21.7308 5.56711 21.9104 6.47621 21.9362C7.65033 21.9894 8.02222 22.0053 11.0133 22.0053C14.0043 22.0053 14.3762 22.0053 15.5504 21.9416C16.4594 21.9157 17.3576 21.7361 18.2067 21.4103C18.9376 21.1282 19.6014 20.6966 20.1558 20.1431C20.7102 19.5896 21.1429 18.9265 21.4262 18.1961C21.7514 17.3468 21.931 16.4488 21.9575 15.5397C22.0106 14.3656 22.0266 13.9937 22.0266 11.0027C22.0266 8.01159 22.0266 7.6397 21.9628 6.46559C21.9366 5.55654 21.7569 4.65845 21.4315 3.80922C21.1557 3.07441 20.7223 2.4089 20.1618 1.85945C19.6122 1.2991 18.9468 0.865721 18.212 0.589713C17.3628 0.264406 16.4647 0.0847913 15.5557 0.05844C14.3444 0 13.9884 0 11.0027 0" fill="#DB4687"/>
<path d="M11.0027 5.3501C9.88592 5.3501 8.79426 5.68118 7.86566 6.30149C6.93706 6.92181 6.21322 7.8035 5.78562 8.83512C5.35802 9.86675 5.24588 11.002 5.46335 12.0973C5.68083 13.1927 6.21817 14.199 7.00744 14.989C7.79672 15.779 8.8025 16.3173 9.89764 16.5358C10.9928 16.7543 12.1281 16.6432 13.1602 16.2166C14.1922 15.79 15.0746 15.0669 15.6957 14.1389C16.3169 13.2109 16.649 12.1196 16.6501 11.0028C16.6508 10.2608 16.5052 9.52582 16.2217 8.84003C15.9382 8.15424 15.5223 7.53104 14.9979 7.00607C14.4734 6.48109 13.8506 6.06463 13.1651 5.78049C12.4795 5.49635 11.7447 5.3501 11.0027 5.3501ZM11.0027 14.6633C10.2776 14.6633 9.56889 14.4483 8.96605 14.0455C8.36322 13.6427 7.89337 13.0702 7.61591 12.4004C7.33846 11.7305 7.26586 10.9935 7.40731 10.2824C7.54875 9.57128 7.89789 8.9181 8.41055 8.40543C8.92322 7.89276 9.5764 7.54363 10.2875 7.40218C10.9986 7.26074 11.7357 7.33333 12.4055 7.61079C13.0753 7.88824 13.6478 8.35809 14.0506 8.96093C14.4534 9.56376 14.6684 10.2725 14.6684 10.9975C14.6684 11.9698 14.2822 12.9022 13.5948 13.5896C12.9073 14.2771 11.9749 14.6633 11.0027 14.6633Z" fill="#DB4687"/>
<path d="M18.1908 5.12664C18.1908 5.387 18.1136 5.64152 17.9691 5.85808C17.8245 6.07463 17.6191 6.24351 17.3786 6.34338C17.1382 6.44326 16.8736 6.46966 16.6181 6.41925C16.3627 6.36884 16.1279 6.24389 15.9434 6.06015C15.759 5.87642 15.6331 5.64215 15.5816 5.38692C15.5302 5.13169 15.5555 4.86694 15.6544 4.6261C15.7533 4.38526 15.9214 4.17912 16.1374 4.03371C16.3533 3.8883 16.6075 3.81013 16.8679 3.80908C17.2178 3.80908 17.5535 3.94772 17.8014 4.19466C18.0494 4.4416 18.1894 4.77671 18.1908 5.12664Z" fill="#DB4687"/>
</g>
<defs>
<clipPath id="clip0_10_320">
<rect width="22" height="22" fill="white"/>
</clipPath>
</defs>
</svg>
