<svg width="1440" height="27" viewBox="0 0 1440 27" fill="none" xmlns="http://www.w3.org/2000/svg">
<mask id="mask0_10_462" style="mask-type:alpha" maskUnits="userSpaceOnUse" x="-21" y="0" width="1461" height="27">
<rect x="-21" width="1461" height="27" fill="#D9D9D9"/>
</mask>
<g mask="url(#mask0_10_462)">
<line y1="-2" x2="77.0452" y2="-2" transform="matrix(0.627317 -0.778764 0.795491 0.605965 900.388 43)" stroke="white" stroke-width="4"/>
<line y1="-2" x2="77.0452" y2="-2" transform="matrix(0.627317 -0.778764 0.795491 0.605965 871.594 43)" stroke="white" stroke-width="4"/>
<line y1="-2" x2="77.0452" y2="-2" transform="matrix(0.627317 -0.778764 0.795491 0.605965 857.198 43)" stroke="white" stroke-width="4"/>
<line y1="-2" x2="77.0452" y2="-2" transform="matrix(0.627317 -0.778764 0.795491 0.605965 842.801 43)" stroke="white" stroke-width="4"/>
<line y1="-2" x2="77.0452" y2="-2" transform="matrix(0.627317 -0.778764 0.795491 0.605965 828.404 43)" stroke="white" stroke-width="4"/>
<line y1="-2" x2="77.0452" y2="-2" transform="matrix(0.627317 -0.778764 0.795491 0.605965 814.008 43)" stroke="white" stroke-width="4"/>
<line y1="-2" x2="77.0452" y2="-2" transform="matrix(0.627317 -0.778764 0.795491 0.605965 799.611 43)" stroke="white" stroke-width="4"/>
<line y1="-2" x2="77.0452" y2="-2" transform="matrix(0.627317 -0.778764 0.795491 0.605965 785.214 43)" stroke="white" stroke-width="4"/>
<line y1="-2" x2="77.0452" y2="-2" transform="matrix(0.627317 -0.778764 0.795491 0.605965 770.818 43)" stroke="white" stroke-width="4"/>
<line y1="-2" x2="77.0452" y2="-2" transform="matrix(0.627317 -0.778764 0.795491 0.605965 756.421 43)" stroke="white" stroke-width="4"/>
<line y1="-2" x2="77.0452" y2="-2" transform="matrix(0.627317 -0.778764 0.795491 0.605965 742.024 43)" stroke="white" stroke-width="4"/>
<line y1="-2" x2="77.0452" y2="-2" transform="matrix(0.627317 -0.778764 0.795491 0.605965 727.628 43)" stroke="white" stroke-width="4"/>
<line y1="-2" x2="77.0452" y2="-2" transform="matrix(0.627317 -0.778764 0.795491 0.605965 713.231 43)" stroke="white" stroke-width="4"/>
<line y1="-2" x2="77.0452" y2="-2" transform="matrix(0.627317 -0.778764 0.795491 0.605965 698.834 43)" stroke="white" stroke-width="4"/>
<line y1="-2" x2="77.0452" y2="-2" transform="matrix(0.627317 -0.778764 0.795491 0.605965 684.437 43)" stroke="white" stroke-width="4"/>
<line y1="-2" x2="77.0452" y2="-2" transform="matrix(0.627317 -0.778764 0.795491 0.605965 670.041 43)" stroke="white" stroke-width="4"/>
<line y1="-2" x2="77.0452" y2="-2" transform="matrix(0.627317 -0.778764 0.795491 0.605965 655.644 43)" stroke="white" stroke-width="4"/>
<line y1="-2" x2="77.0452" y2="-2" transform="matrix(0.627317 -0.778764 0.795491 0.605965 641.247 43)" stroke="white" stroke-width="4"/>
<line y1="-2" x2="77.0452" y2="-2" transform="matrix(0.627317 -0.778764 0.795491 0.605965 626.851 43)" stroke="white" stroke-width="4"/>
<line y1="-2" x2="77.0452" y2="-2" transform="matrix(0.627317 -0.778764 0.795491 0.605965 612.454 43)" stroke="white" stroke-width="4"/>
<line y1="-2" x2="77.0452" y2="-2" transform="matrix(0.627317 -0.778764 0.795491 0.605965 598.057 43)" stroke="white" stroke-width="4"/>
<line y1="-2" x2="77.0452" y2="-2" transform="matrix(0.627317 -0.778764 0.795491 0.605965 583.661 43)" stroke="white" stroke-width="4"/>
<line y1="-2" x2="77.0452" y2="-2" transform="matrix(0.627317 -0.778764 0.795491 0.605965 569.264 43)" stroke="white" stroke-width="4"/>
<line y1="-2" x2="77.0452" y2="-2" transform="matrix(0.627317 -0.778764 0.795491 0.605965 554.867 43)" stroke="white" stroke-width="4"/>
<line y1="-2" x2="77.0452" y2="-2" transform="matrix(0.627317 -0.778764 0.795491 0.605965 540.471 43)" stroke="white" stroke-width="4"/>
<line y1="-2" x2="77.0452" y2="-2" transform="matrix(0.627317 -0.778764 0.795491 0.605965 526.074 43)" stroke="white" stroke-width="4"/>
<line y1="-2" x2="77.0452" y2="-2" transform="matrix(0.627317 -0.778764 0.795491 0.605965 885.991 43)" stroke="white" stroke-width="4"/>
<line y1="-2" x2="77.0452" y2="-2" transform="matrix(0.627317 -0.778764 0.795491 0.605965 914.784 43)" stroke="white" stroke-width="4"/>
<line y1="-2" x2="77.0452" y2="-2" transform="matrix(0.627317 -0.778764 0.795491 0.605965 929.181 43)" stroke="white" stroke-width="4"/>
<line y1="-2" x2="77.0452" y2="-2" transform="matrix(0.627317 -0.778764 0.795491 0.605965 943.578 43)" stroke="white" stroke-width="4"/>
<line y1="-2" x2="77.0452" y2="-2" transform="matrix(0.627317 -0.778764 0.795491 0.605965 957.974 43)" stroke="white" stroke-width="4"/>
<line y1="-2" x2="77.0452" y2="-2" transform="matrix(0.627317 -0.778764 0.795491 0.605965 972.371 43)" stroke="white" stroke-width="4"/>
<line y1="-2" x2="77.0452" y2="-2" transform="matrix(0.627317 -0.778764 0.795491 0.605965 986.768 43)" stroke="white" stroke-width="4"/>
<line y1="-2" x2="77.0452" y2="-2" transform="matrix(0.627317 -0.778764 0.795491 0.605965 1001.16 43)" stroke="white" stroke-width="4"/>
<line y1="-2" x2="77.0452" y2="-2" transform="matrix(0.627317 -0.778764 0.795491 0.605965 1015.56 43)" stroke="white" stroke-width="4"/>
<line y1="-2" x2="77.0452" y2="-2" transform="matrix(0.627317 -0.778764 0.795491 0.605965 1029.96 43)" stroke="white" stroke-width="4"/>
<line y1="-2" x2="77.0452" y2="-2" transform="matrix(0.627317 -0.778764 0.795491 0.605965 1044.35 43)" stroke="white" stroke-width="4"/>
<line y1="-2" x2="77.0452" y2="-2" transform="matrix(0.627317 -0.778764 0.795491 0.605965 1058.75 43)" stroke="white" stroke-width="4"/>
<line y1="-2" x2="77.0452" y2="-2" transform="matrix(0.627317 -0.778764 0.795491 0.605965 1073.15 43)" stroke="white" stroke-width="4"/>
<line y1="-2" x2="77.0452" y2="-2" transform="matrix(0.627317 -0.778764 0.795491 0.605965 1087.54 43)" stroke="white" stroke-width="4"/>
<line y1="-2" x2="77.0452" y2="-2" transform="matrix(0.627317 -0.778764 0.795491 0.605965 1101.94 43)" stroke="white" stroke-width="4"/>
<line y1="-2" x2="77.0452" y2="-2" transform="matrix(0.627317 -0.778764 0.795491 0.605965 1116.34 43)" stroke="white" stroke-width="4"/>
<line y1="-2" x2="77.0452" y2="-2" transform="matrix(0.627317 -0.778764 0.795491 0.605965 1130.73 43)" stroke="white" stroke-width="4"/>
<line y1="-2" x2="77.0452" y2="-2" transform="matrix(0.627317 -0.778764 0.795491 0.605965 1145.13 43)" stroke="white" stroke-width="4"/>
<line y1="-2" x2="77.0452" y2="-2" transform="matrix(0.627317 -0.778764 0.795491 0.605965 1159.53 43)" stroke="white" stroke-width="4"/>
<line y1="-2" x2="77.0452" y2="-2" transform="matrix(0.627317 -0.778764 0.795491 0.605965 1173.92 43)" stroke="white" stroke-width="4"/>
<line y1="-2" x2="77.0452" y2="-2" transform="matrix(0.627317 -0.778764 0.795491 0.605965 1188.32 43)" stroke="white" stroke-width="4"/>
<line y1="-2" x2="77.0452" y2="-2" transform="matrix(0.627317 -0.778764 0.795491 0.605965 1202.72 43)" stroke="white" stroke-width="4"/>
<line y1="-2" x2="77.0452" y2="-2" transform="matrix(0.627317 -0.778764 0.795491 0.605965 1217.11 43)" stroke="white" stroke-width="4"/>
<line y1="-2" x2="77.0452" y2="-2" transform="matrix(0.627317 -0.778764 0.795491 0.605965 1231.51 43)" stroke="white" stroke-width="4"/>
<line y1="-2" x2="77.0452" y2="-2" transform="matrix(0.627317 -0.778764 0.795491 0.605965 1245.91 43)" stroke="white" stroke-width="4"/>
<line y1="-2" x2="77.0452" y2="-2" transform="matrix(0.627317 -0.778764 0.795491 0.605965 1260.3 43)" stroke="white" stroke-width="4"/>
<line y1="-2" x2="77.0452" y2="-2" transform="matrix(0.627317 -0.778764 0.795491 0.605965 1274.7 43)" stroke="white" stroke-width="4"/>
<line y1="-2" x2="77.0452" y2="-2" transform="matrix(0.627317 -0.778764 0.795491 0.605965 1289.1 43)" stroke="white" stroke-width="4"/>
<line y1="-2" x2="77.0452" y2="-2" transform="matrix(0.627317 -0.778764 0.795491 0.605965 1303.49 43)" stroke="white" stroke-width="4"/>
<line y1="-2" x2="77.0452" y2="-2" transform="matrix(0.627317 -0.778764 0.795491 0.605965 1317.89 43)" stroke="white" stroke-width="4"/>
<line y1="-2" x2="77.0452" y2="-2" transform="matrix(0.627317 -0.778764 0.795491 0.605965 1332.29 43)" stroke="white" stroke-width="4"/>
<line y1="-2" x2="77.0452" y2="-2" transform="matrix(0.627317 -0.778764 0.795491 0.605965 1346.68 43)" stroke="white" stroke-width="4"/>
<line y1="-2" x2="77.0452" y2="-2" transform="matrix(0.627317 -0.778764 0.795491 0.605965 1361.08 43)" stroke="white" stroke-width="4"/>
<line y1="-2" x2="77.0452" y2="-2" transform="matrix(0.627317 -0.778764 0.795491 0.605965 1375.48 43)" stroke="white" stroke-width="4"/>
<line y1="-2" x2="77.0452" y2="-2" transform="matrix(0.627317 -0.778764 0.795491 0.605965 1389.87 43)" stroke="white" stroke-width="4"/>
<line y1="-2" x2="77.0452" y2="-2" transform="matrix(0.627317 -0.778764 0.795491 0.605965 1404.27 43)" stroke="white" stroke-width="4"/>
<line y1="-2" x2="77.0452" y2="-2" transform="matrix(0.627317 -0.778764 0.795491 0.605965 1418.67 43)" stroke="white" stroke-width="4"/>
<line y1="-2" x2="77.0452" y2="-2" transform="matrix(0.627317 -0.778764 0.795491 0.605965 511.677 43)" stroke="white" stroke-width="4"/>
<line y1="-2" x2="77.0452" y2="-2" transform="matrix(0.627317 -0.778764 0.795491 0.605965 497.281 43)" stroke="white" stroke-width="4"/>
<line y1="-2" x2="77.0452" y2="-2" transform="matrix(0.627317 -0.778764 0.795491 0.605965 482.884 43)" stroke="white" stroke-width="4"/>
<line y1="-2" x2="77.0452" y2="-2" transform="matrix(0.627317 -0.778764 0.795491 0.605965 468.487 43)" stroke="white" stroke-width="4"/>
<line y1="-2" x2="77.0452" y2="-2" transform="matrix(0.627317 -0.778764 0.795491 0.605965 454.091 43)" stroke="white" stroke-width="4"/>
<line y1="-2" x2="77.0452" y2="-2" transform="matrix(0.627317 -0.778764 0.795491 0.605965 439.694 43)" stroke="white" stroke-width="4"/>
<line y1="-2" x2="77.0452" y2="-2" transform="matrix(0.627317 -0.778764 0.795491 0.605965 425.297 43)" stroke="white" stroke-width="4"/>
<line y1="-2" x2="77.0452" y2="-2" transform="matrix(0.627317 -0.778764 0.795491 0.605965 410.9 43)" stroke="white" stroke-width="4"/>
<line y1="-2" x2="77.0452" y2="-2" transform="matrix(0.627317 -0.778764 0.795491 0.605965 396.504 43)" stroke="white" stroke-width="4"/>
<line y1="-2" x2="77.0452" y2="-2" transform="matrix(0.627317 -0.778764 0.795491 0.605965 382.107 43)" stroke="white" stroke-width="4"/>
<line y1="-2" x2="77.0452" y2="-2" transform="matrix(0.627317 -0.778764 0.795491 0.605965 367.71 43)" stroke="white" stroke-width="4"/>
<line y1="-2" x2="77.0452" y2="-2" transform="matrix(0.627317 -0.778764 0.795491 0.605965 353.314 43)" stroke="white" stroke-width="4"/>
<line y1="-2" x2="77.0452" y2="-2" transform="matrix(0.627317 -0.778764 0.795491 0.605965 338.917 43)" stroke="white" stroke-width="4"/>
<line y1="-2" x2="77.0452" y2="-2" transform="matrix(0.627317 -0.778764 0.795491 0.605965 324.52 43)" stroke="white" stroke-width="4"/>
<line y1="-2" x2="77.0452" y2="-2" transform="matrix(0.627317 -0.778764 0.795491 0.605965 310.124 43)" stroke="white" stroke-width="4"/>
<line y1="-2" x2="77.0452" y2="-2" transform="matrix(0.627317 -0.778764 0.795491 0.605965 295.727 43)" stroke="white" stroke-width="4"/>
<line y1="-2" x2="77.0452" y2="-2" transform="matrix(0.627317 -0.778764 0.795491 0.605965 281.33 43)" stroke="white" stroke-width="4"/>
<line y1="-2" x2="77.0452" y2="-2" transform="matrix(0.627317 -0.778764 0.795491 0.605965 266.934 43)" stroke="white" stroke-width="4"/>
<line y1="-2" x2="77.0452" y2="-2" transform="matrix(0.627317 -0.778764 0.795491 0.605965 252.537 43)" stroke="white" stroke-width="4"/>
<line y1="-2" x2="77.0452" y2="-2" transform="matrix(0.627317 -0.778764 0.795491 0.605965 238.14 43)" stroke="white" stroke-width="4"/>
<line y1="-2" x2="77.0452" y2="-2" transform="matrix(0.627317 -0.778764 0.795491 0.605965 223.744 43)" stroke="white" stroke-width="4"/>
<line y1="-2" x2="77.0452" y2="-2" transform="matrix(0.627317 -0.778764 0.795491 0.605965 209.347 43)" stroke="white" stroke-width="4"/>
<line y1="-2" x2="77.0452" y2="-2" transform="matrix(0.627317 -0.778764 0.795491 0.605965 194.95 43)" stroke="white" stroke-width="4"/>
<line y1="-2" x2="77.0452" y2="-2" transform="matrix(0.627317 -0.778764 0.795491 0.605965 180.554 43)" stroke="white" stroke-width="4"/>
<line y1="-2" x2="77.0452" y2="-2" transform="matrix(0.627317 -0.778764 0.795491 0.605965 166.157 43)" stroke="white" stroke-width="4"/>
<line y1="-2" x2="77.0452" y2="-2" transform="matrix(0.627317 -0.778764 0.795491 0.605965 151.76 43)" stroke="white" stroke-width="4"/>
<line y1="-2" x2="77.0452" y2="-2" transform="matrix(0.627317 -0.778764 0.795491 0.605965 137.364 43)" stroke="white" stroke-width="4"/>
<line y1="-2" x2="77.0452" y2="-2" transform="matrix(0.627317 -0.778764 0.795491 0.605965 122.967 43)" stroke="white" stroke-width="4"/>
<line y1="-2" x2="77.0452" y2="-2" transform="matrix(0.627317 -0.778764 0.795491 0.605965 108.57 43)" stroke="white" stroke-width="4"/>
<line y1="-2" x2="77.0452" y2="-2" transform="matrix(0.627317 -0.778764 0.795491 0.605965 94.1735 43)" stroke="white" stroke-width="4"/>
<line y1="-2" x2="77.0452" y2="-2" transform="matrix(0.627317 -0.778764 0.795491 0.605965 79.7768 43)" stroke="white" stroke-width="4"/>
<line y1="-2" x2="77.0452" y2="-2" transform="matrix(0.627317 -0.778764 0.795491 0.605965 65.3801 43)" stroke="white" stroke-width="4"/>
<line y1="-2" x2="77.0452" y2="-2" transform="matrix(0.627317 -0.778764 0.795491 0.605965 50.9834 43)" stroke="white" stroke-width="4"/>
<line y1="-2" x2="77.0452" y2="-2" transform="matrix(0.627317 -0.778764 0.795491 0.605965 36.5867 43)" stroke="white" stroke-width="4"/>
<line y1="-2" x2="77.0452" y2="-2" transform="matrix(0.627317 -0.778764 0.795491 0.605965 22.1901 43)" stroke="white" stroke-width="4"/>
<line y1="-2" x2="77.0452" y2="-2" transform="matrix(0.627317 -0.778764 0.795491 0.605965 7.79337 43)" stroke="white" stroke-width="4"/>
<line y1="-2" x2="77.0452" y2="-2" transform="matrix(0.627317 -0.778764 0.795491 0.605965 -6.60333 43)" stroke="white" stroke-width="4"/>
<line y1="-2" x2="77.0452" y2="-2" transform="matrix(0.627317 -0.778764 0.795491 0.605965 -21 43)" stroke="white" stroke-width="4"/>
</g>
</svg>
