<svg width="13" height="18" viewBox="0 0 13 18" fill="none" xmlns="http://www.w3.org/2000/svg">
<g clip-path="url(#clip0_10_331)">
<path d="M4.47056 6.17291C5.01838 6.14938 5.55171 5.98926 6.02233 5.70703C6.24733 5.50646 6.42967 5.26242 6.55845 4.98953C6.68723 4.71663 6.7598 4.42048 6.77182 4.11879C6.87875 3.15038 6.91755 2.17561 6.88794 1.20173C6.81405 0.672322 5.58952 0.338793 4.9931 0.23291C4.5734 2.18347 4.39612 4.17865 4.46528 6.17291" fill="#DB4687"/>
<path d="M12.7625 15.0992C12.9156 14.5698 13.2534 13.3362 12.6675 12.9339C11.9813 12.4627 10.6724 11.5786 10.097 11.2292C9.33699 10.7633 8.27081 11.5733 7.71133 12.1345C9.27278 13.3188 10.9682 14.3139 12.7625 15.0992Z" fill="#DB4687"/>
<path d="M10.3082 15.279C8.16525 14.1619 5.09339 12.0496 4.10638 9.9372C2.89769 7.33779 3.31994 3.85426 3.47301 2.32426C3.54391 1.57174 3.65846 0.824003 3.81608 0.0848484C3.38845 -0.0386995 2.93474 -0.0386995 2.50711 0.0848484C2.08607 0.160574 1.69284 0.347721 1.36807 0.626941C1.0433 0.906162 0.798771 1.26732 0.659769 1.67308C0.226963 3.07603 -0.833938 7.22661 1.23508 11.3137C1.97465 12.8685 3.02336 14.2553 4.31678 15.3887C5.6102 16.5222 7.12101 17.3784 8.7564 17.9049C10.0865 18.3284 11.9233 17.2696 12.2558 16.3166V16.2531C11.728 16.036 11.026 15.6813 10.2871 15.2948" fill="#DB4687"/>
</g>
<defs>
<clipPath id="clip0_10_331">
<rect width="13" height="18" fill="white"/>
</clipPath>
</defs>
</svg>
